<?xml version="1.0" standalone="no"?>
<!DOCTYPE svg PUBLIC "-//W3C//DTD SVG 20010904//EN"
 "http://www.w3.org/TR/2001/REC-SVG-20010904/DTD/svg10.dtd">
<svg version="1.0" xmlns="http://www.w3.org/2000/svg"
 width="225.000000pt" height="225.000000pt" viewBox="0 0 225.000000 225.000000"
 preserveAspectRatio="xMidYMid meet">
<metadata>
Created by potrace 1.16, written by Peter Selinger 2001-2019
</metadata>
<g transform="translate(0.000000,225.000000) scale(0.100000,-0.100000)"
fill="#000000" stroke="none">
<path d="M1443 2102 l-63 -3 0 -79 0 -80 200 0 200 0 0 83 0 82 -138 0 c-75 0
-165 -1 -199 -3z"/>
<path d="M1096 2079 c-63 -17 -92 -80 -62 -137 20 -38 44 -52 91 -52 81 0 123
95 70 158 -28 33 -57 42 -99 31z"/>
<path d="M1269 1755 l54 -25 -21 -23 c-11 -12 -22 -29 -24 -37 -2 -8 -7 -18
-12 -21 -4 -4 25 -24 65 -45 50 -26 97 -61 143 -108 39 -39 67 -66 64 -60 -10
16 76 36 107 24 l26 -10 -27 50 c-70 129 -241 249 -389 274 l-40 7 54 -26z"/>
<path d="M1057 1619 c-32 -5 -78 -18 -104 -29 -25 -11 -54 -20 -63 -20 -16 0
-69 -52 -70 -68 -1 -4 -17 -25 -36 -47 -20 -22 -33 -34 -29 -27 3 6 2 12 -4
12 -10 0 -31 -31 -31 -46 0 -3 7 -1 15 6 19 15 19 18 -5 -58 -26 -84 -26 -184
1 -264 l20 -61 -21 -22 c-20 -21 -20 -25 -7 -51 34 -65 151 -174 187 -174 6 0
22 11 36 25 23 23 28 24 74 14 27 -6 58 -8 67 -6 11 3 6 5 -12 7 -26 1 -27 3
-10 10 11 5 40 8 65 8 39 0 41 -1 15 -7 -28 -7 -28 -8 -8 -14 52 -18 195 49
279 131 18 17 35 28 38 25 3 -4 6 17 6 46 0 45 4 56 29 76 41 35 55 75 49 148
-6 62 -44 161 -60 151 -4 -3 -8 -40 -9 -82 -1 -42 -5 -102 -9 -132 -5 -36 -6
-7 -3 80 3 74 9 157 13 185 7 48 7 51 -27 82 -51 49 -114 82 -164 88 -24 2
-71 9 -104 15 -33 5 -60 9 -60 9 0 -1 -26 -5 -58 -10z m283 -104 c0 -2 -8 -2
-17 2 -17 6 -17 5 0 -14 22 -26 22 -33 -4 -33 -14 0 -19 -5 -16 -14 4 -11 1
-13 -11 -9 -11 3 -7 -4 10 -21 27 -26 29 -26 53 -10 14 9 25 21 25 26 0 5 5 6
11 2 7 -4 -1 -14 -20 -26 -36 -23 -35 -21 -16 -58 9 -17 12 -30 8 -30 -5 0
-13 10 -18 22 -6 12 -16 24 -24 26 -8 3 -11 0 -7 -6 3 -6 -1 -8 -12 -6 -27 8
-110 -33 -118 -59 -4 -12 -6 -24 -5 -26 2 -2 -3 -7 -10 -12 -10 -6 -10 -11 1
-26 12 -15 12 -16 0 -5 -8 6 -26 12 -41 12 -22 0 -30 7 -42 38 -12 30 -26 43
-66 62 -28 13 -49 25 -47 27 2 2 27 -8 57 -22 76 -35 109 -33 224 16 17 7 35
11 42 10 6 -1 14 2 17 7 10 17 -29 39 -78 46 -55 7 -61 10 -51 25 4 7 12 8 24
1 19 -10 41 4 41 26 0 19 27 37 33 22 4 -10 8 -10 16 2 5 8 7 18 4 23 -3 5 4
4 16 -2 11 -7 21 -14 21 -16z"/>
<path d="M565 944 c53 -127 152 -232 276 -293 195 -96 386 -93 578 9 57 31
115 80 94 80 -5 0 -18 -9 -29 -21 -27 -29 -149 -86 -225 -104 -113 -26 -287
-14 -362 27 -17 9 -17 11 5 31 54 52 54 50 -31 105 -53 34 -96 73 -131 117
-28 36 -56 65 -60 65 -5 0 -20 -4 -34 -10 -18 -7 -24 -14 -20 -27 4 -13 3 -15
-4 -5 -5 8 -13 13 -17 12 -4 -1 -13 9 -19 21 -6 12 -17 24 -24 27 -10 3 -9 -5
3 -34z"/>
</g>
</svg>
